<svg xmlns="http://www.w3.org/2000/svg" width="240" height="45" viewBox="0 0 240 45">
  <defs>
    <style>
      .cls-1 {
        fill: #fff;
        fill-rule: evenodd;
      }
    </style>
  </defs>
  <path id="Everperform_Logo" data-name="Everperform Logo" class="cls-1" d="M109.175,69.5C109.175,81.928,98.838,92,86.085,92S62.994,81.928,62.994,69.5,73.332,46.989,86.085,46.989,109.175,57.066,109.175,69.5ZM86.085,57.865A11.636,11.636,0,1,0,98.018,69.5,11.785,11.785,0,0,0,86.085,57.865ZM124.7,74.176V63.929a1.1,1.1,0,0,1,1.13-1.1h7.429a1,1,0,0,1,1,.977,0.988,0.988,0,0,1-1,.978h-6.315V68.02h5.492a1,1,0,0,1,1.006,1,0.986,0.986,0,0,1-1.006.96h-5.492v3.344h6.406a1,1,0,0,1,1,.98,0.99,0.99,0,0,1-1,.978h-7.52A1.1,1.1,0,0,1,124.7,74.176Zm19.586,0.393-4.471-10.246a1.2,1.2,0,0,1-.128-0.517,1.093,1.093,0,0,1,1.131-1.067,1.173,1.173,0,0,1,1.15.782l3.687,8.984,3.74-9.056a1.157,1.157,0,0,1,1.079-.71,1.074,1.074,0,0,1,1.112,1.049,1.276,1.276,0,0,1-.109.463l-4.49,10.318a1.338,1.338,0,0,1-1.3.889h-0.127A1.329,1.329,0,0,1,144.284,74.569Zm13.325-.393V63.929a1.1,1.1,0,0,1,1.132-1.1h7.427a1,1,0,0,1,1,.977,0.988,0.988,0,0,1-1,.978h-6.315V68.02h5.493a1,1,0,0,1,1,1,0.985,0.985,0,0,1-1,.96h-5.493v3.344h6.407a1,1,0,0,1,1,.98,0.99,0.99,0,0,1-1,.978h-7.519A1.1,1.1,0,0,1,157.609,74.176ZM173.49,63.929a1.1,1.1,0,0,1,1.131-1.1h4.563a5.224,5.224,0,0,1,3.686,1.245,3.708,3.708,0,0,1,1.059,2.685v0.037a3.7,3.7,0,0,1-2.9,3.717l2.445,3a1.249,1.249,0,0,1,.366.837,1.046,1.046,0,0,1-1.077,1.014,1.289,1.289,0,0,1-1.094-.569l-3.1-3.861h-2.829v3.344a1.123,1.123,0,0,1-2.245,0V63.929ZM179.021,69c1.605,0,2.628-.819,2.628-2.082V66.882c0-1.334-.986-2.062-2.646-2.062h-3.268V69h3.286Zm11.319-5.071a1.1,1.1,0,0,1,1.132-1.1h3.905c2.992,0,4.855,1.653,4.855,4.163v0.035c0,2.792-2.3,4.252-5.111,4.252h-2.537v3a1.123,1.123,0,0,1-2.244,0V63.929Zm4.854,5.373c1.7,0,2.756-.925,2.756-2.223V67.043c0-1.458-1.077-2.223-2.756-2.223h-2.61V69.3h2.61Zm10.989,4.874V63.929a1.1,1.1,0,0,1,1.133-1.1h7.427a1,1,0,0,1,1,.977,0.988,0.988,0,0,1-1,.978h-6.315V68.02h5.492a1,1,0,0,1,1.006,1,0.986,0.986,0,0,1-1.006.96h-5.492v3.344h6.406a1,1,0,0,1,1,.98,0.99,0.99,0,0,1-1,.978h-7.518A1.1,1.1,0,0,1,206.183,74.176Zm15.882-10.247a1.1,1.1,0,0,1,1.13-1.1h4.563a5.227,5.227,0,0,1,3.687,1.245,3.713,3.713,0,0,1,1.059,2.685v0.037a3.7,3.7,0,0,1-2.9,3.717l2.445,3a1.252,1.252,0,0,1,.365.837,1.046,1.046,0,0,1-1.076,1.014,1.29,1.29,0,0,1-1.095-.569l-3.1-3.861H224.31v3.344a1.123,1.123,0,0,1-2.245,0V63.929ZM227.6,69c1.6,0,2.628-.819,2.628-2.082V66.882c0-1.334-.985-2.062-2.646-2.062H224.31V69H227.6Zm11.317-5.071a1.1,1.1,0,0,1,1.13-1.1h7.447a1,1,0,1,1,0,1.992h-6.332v3.4h5.512a1,1,0,1,1,0,1.992h-5.512v4.072a1.123,1.123,0,0,1-2.245,0V63.929Zm14.95,5.16V69.052a6.684,6.684,0,0,1,13.358-.035v0.035A6.684,6.684,0,0,1,253.862,69.089Zm11,0V69.052a4.316,4.316,0,0,0-4.344-4.428,4.257,4.257,0,0,0-4.306,4.394v0.035a4.3,4.3,0,0,0,4.344,4.413A4.242,4.242,0,0,0,264.866,69.089Zm8.729-5.16a1.1,1.1,0,0,1,1.131-1.1h4.562a5.227,5.227,0,0,1,3.687,1.245,3.713,3.713,0,0,1,1.059,2.685v0.037a3.7,3.7,0,0,1-2.9,3.717l2.445,3a1.249,1.249,0,0,1,.366.837,1.046,1.046,0,0,1-1.077,1.014,1.292,1.292,0,0,1-1.095-.569l-3.1-3.861H275.84v3.344a1.123,1.123,0,0,1-2.245,0V63.929ZM279.126,69c1.6,0,2.628-.819,2.628-2.082V66.882c0-1.334-.986-2.062-2.646-2.062H275.84V69h3.286Zm11.319-5.141a1.111,1.111,0,0,1,1.132-1.1h0.236a1.193,1.193,0,0,1,1.041.587l3.867,5.905,3.888-5.923a1.136,1.136,0,0,1,1.023-.569h0.236a1.112,1.112,0,0,1,1.133,1.1V74.282a1.1,1.1,0,0,1-1.133,1.087,1.114,1.114,0,0,1-1.112-1.087V66.812l-3.121,4.571a1.062,1.062,0,0,1-1.881,0l-3.1-4.537V74.3a1.078,1.078,0,0,1-1.115,1.067,1.062,1.062,0,0,1-1.094-1.067V63.859Z" transform="translate(-63 -47)"/>
</svg>
